<svg xmlns="http://www.w3.org/2000/svg" viewBox="0 0 200 200" fill="none" color="#f3ece0">
  <defs>
    <path id="arcTop" d="M36 100 A64 64 0 0 1 164 100"/>
    <path id="arcBot" d="M30 100 A70 70 0 0 0 170 100"/>
  </defs>
  <circle cx="100" cy="100" r="95" stroke="#f3ece0" stroke-width="4"/>
  <circle cx="100" cy="100" r="86" stroke="#f3ece0" stroke-width="1.4" stroke-dasharray="1 6" stroke-linecap="round"/>
  <text font-family="Georgia, 'Times New Roman', serif" font-size="17" font-weight="700" letter-spacing="4" fill="#f3ece0">
    <textPath href="#arcTop" startOffset="50%" text-anchor="middle">STARBARBER</textPath>
  </text>
  <text font-family="Georgia, 'Times New Roman', serif" font-size="12" font-weight="700" letter-spacing="4" fill="#f3ece0" dominant-baseline="hanging">
    <textPath href="#arcBot" startOffset="50%" text-anchor="middle">KORTENBERG</textPath>
  </text>
  <!-- ster -->
  <path d="M100 52l4.1 8.4 9.2 1.3-6.7 6.5 1.6 9.2-8.2-4.3-8.2 4.3 1.6-9.2-6.7-6.5 9.2-1.3z" fill="#f3ece0"/>
  <line x1="34" y1="112" x2="54" y2="112" stroke="#f3ece0" stroke-width="2.5"/>
  <line x1="146" y1="112" x2="166" y2="112" stroke="#f3ece0" stroke-width="2.5"/>
  <text x="100" y="128" text-anchor="middle" font-family="Georgia, 'Times New Roman', serif" font-size="50" font-weight="700" fill="#f3ece0">SB</text>
  <!-- schaar -->
  <g stroke="#f3ece0" stroke-width="2.2" stroke-linecap="round">
    <line x1="92" y1="140" x2="108" y2="152"/><line x1="108" y1="140" x2="92" y2="152"/>
  </g>
  <circle cx="89.5" cy="154" r="3" stroke="#f3ece0" stroke-width="1.8"/>
  <circle cx="110.5" cy="154" r="3" stroke="#f3ece0" stroke-width="1.8"/>
</svg>
